# xmcd
#
# Track frame offsets:
# 150
# 3380
# 23908
# 46462
# 50417
# 76985
# 103030
# 105733
# 123943
# 125902
# 145352
# 168006
# 190544
#
# Disc length: 2569 seconds
#
#
# Revision: 0
# Processed by: cddbd v1.5.1PL0 Copyright (c) Steve Scherf et al.
# Submitted via: FreeRIP 2.00 
#
DISCID=a70a070d
DTITLE=Cowboy Junkies - Ram's Head Tavern - 6-6-2005
DYEAR=2005
DGENRE=Blues
TTITLE0=Opening Applause
TTITLE1=License To Kill
TTITLE2=Good Friday
TTITLE3=Whites Off Earth Now Story
TTITLE4=Shining Moon
TTITLE5=Pale Sun
TTITLE6=New Album Pitch
TTITLE7=December Skies
TTITLE8=Dedication For Dawn-Don
TTITLE9=Hold On To Me
TTITLE10=Brothers Under The Bridge
TTITLE11=Those Final Feet
TTITLE12=No Room To Dance On Stage
EXTD=
EXTT0=
EXTT1=
EXTT2=
EXTT3=
EXTT4=
EXTT5=
EXTT6=
EXTT7=
EXTT8=
EXTT9=
EXTT10=
EXTT11=
EXTT12=
PLAYORDER=
